<mxfile host="app.diagrams.net" modified="2021-09-12T22:43:24.476Z" agent="5.0 (Macintosh; Intel Mac OS X 10_15_7) AppleWebKit/605.1.15 (KHTML, like Gecko) Version/14.1.2 Safari/605.1.15" etag="B35_WwAx5OY38Ozj_c2T" version="15.1.4" type="github">
  <diagram id="bzCLcdmiPPlbZjN3fMLp" name="Page-1">
    <mxGraphModel dx="670" dy="487" grid="1" gridSize="10" guides="1" tooltips="1" connect="1" arrows="1" fold="1" page="1" pageScale="1" pageWidth="827" pageHeight="1169" math="0" shadow="0">
      <root>
        <mxCell id="0" />
        <mxCell id="1" parent="0" />
        <mxCell id="ofnzA-qi2x1utJGHs7Zy-3" style="edgeStyle=orthogonalEdgeStyle;rounded=0;orthogonalLoop=1;jettySize=auto;html=1;" edge="1" parent="1" source="ofnzA-qi2x1utJGHs7Zy-1" target="ofnzA-qi2x1utJGHs7Zy-4">
          <mxGeometry relative="1" as="geometry">
            <mxPoint x="285" y="160" as="targetPoint" />
          </mxGeometry>
        </mxCell>
        <mxCell id="ofnzA-qi2x1utJGHs7Zy-1" value="" style="ellipse;whiteSpace=wrap;html=1;aspect=fixed;fillColor=#000000;" vertex="1" parent="1">
          <mxGeometry x="260" y="50" width="50" height="50" as="geometry" />
        </mxCell>
        <mxCell id="ofnzA-qi2x1utJGHs7Zy-11" style="edgeStyle=orthogonalEdgeStyle;rounded=0;orthogonalLoop=1;jettySize=auto;html=1;" edge="1" parent="1" source="ofnzA-qi2x1utJGHs7Zy-4" target="ofnzA-qi2x1utJGHs7Zy-20">
          <mxGeometry relative="1" as="geometry">
            <mxPoint x="285" y="240" as="targetPoint" />
          </mxGeometry>
        </mxCell>
        <mxCell id="ofnzA-qi2x1utJGHs7Zy-4" value="제습 버튼 누름" style="rounded=1;whiteSpace=wrap;html=1;fillColor=#FFFFFF;" vertex="1" parent="1">
          <mxGeometry x="225" y="140" width="120" height="60" as="geometry" />
        </mxCell>
        <mxCell id="ofnzA-qi2x1utJGHs7Zy-22" value="" style="edgeStyle=orthogonalEdgeStyle;rounded=0;orthogonalLoop=1;jettySize=auto;html=1;" edge="1" parent="1" source="ofnzA-qi2x1utJGHs7Zy-20" target="ofnzA-qi2x1utJGHs7Zy-23">
          <mxGeometry relative="1" as="geometry">
            <mxPoint x="285" y="350" as="targetPoint" />
          </mxGeometry>
        </mxCell>
        <mxCell id="ofnzA-qi2x1utJGHs7Zy-20" value="On/Off 상태 저장" style="rounded=1;whiteSpace=wrap;html=1;fillColor=#FFFFFF;" vertex="1" parent="1">
          <mxGeometry x="225" y="240" width="120" height="60" as="geometry" />
        </mxCell>
        <mxCell id="ofnzA-qi2x1utJGHs7Zy-24" value="ON인 경우" style="edgeStyle=orthogonalEdgeStyle;rounded=0;orthogonalLoop=1;jettySize=auto;html=1;" edge="1" parent="1" source="ofnzA-qi2x1utJGHs7Zy-23">
          <mxGeometry x="-0.2" relative="1" as="geometry">
            <mxPoint x="285" y="470" as="targetPoint" />
            <mxPoint as="offset" />
          </mxGeometry>
        </mxCell>
        <mxCell id="ofnzA-qi2x1utJGHs7Zy-26" value="OFF인 경우" style="edgeStyle=orthogonalEdgeStyle;rounded=0;orthogonalLoop=1;jettySize=auto;html=1;" edge="1" parent="1" source="ofnzA-qi2x1utJGHs7Zy-23" target="ofnzA-qi2x1utJGHs7Zy-28">
          <mxGeometry x="-0.4194" relative="1" as="geometry">
            <mxPoint x="410" y="470" as="targetPoint" />
            <Array as="points">
              <mxPoint x="430" y="380" />
            </Array>
            <mxPoint as="offset" />
          </mxGeometry>
        </mxCell>
        <mxCell id="ofnzA-qi2x1utJGHs7Zy-23" value="" style="rhombus;whiteSpace=wrap;html=1;fillColor=#FFFFFF;" vertex="1" parent="1">
          <mxGeometry x="245" y="340" width="80" height="80" as="geometry" />
        </mxCell>
        <mxCell id="ofnzA-qi2x1utJGHs7Zy-27" value="LED ON&lt;br&gt;모터 회전" style="rounded=1;whiteSpace=wrap;html=1;fillColor=#FFFFFF;" vertex="1" parent="1">
          <mxGeometry x="225" y="470" width="120" height="60" as="geometry" />
        </mxCell>
        <mxCell id="ofnzA-qi2x1utJGHs7Zy-28" value="LED OFF&lt;br&gt;모터 멈춤" style="rounded=1;whiteSpace=wrap;html=1;fillColor=#FFFFFF;" vertex="1" parent="1">
          <mxGeometry x="370" y="470" width="120" height="60" as="geometry" />
        </mxCell>
      </root>
    </mxGraphModel>
  </diagram>
</mxfile>
